<svg xmlns="http://www.w3.org/2000/svg" xmlns:xlink="http://www.w3.org/1999/xlink" width="127.874" height="18" viewBox="0 0 127.874 18"><defs><clipPath id="a"><rect width="127.874" height="18" fill="none"/></clipPath></defs><g clip-path="url(#a)"><path d="M1015.862,25.29V21.027h1.441a2.43,2.43,0,0,1,1.019.161,1.367,1.367,0,0,1,.749,1.279c0,.789-.438,1.486-1.659,1.486h-.507V25.29ZM1017.371,23c.438,0,.657-.15.657-.512,0-.346-.213-.5-.7-.5h-.426V23Z" transform="translate(-895.621 -18.538)" fill="#1a1818"/><path d="M1047.1,25.292V21.029h1.089v3.307h1.261v.956Z" transform="translate(-923.163 -18.54)" fill="#1a1818"/><path d="M1004.928,9.49a4.745,4.745,0,1,1,4.745-4.744,4.75,4.75,0,0,1-4.745,4.744m0-8.536a3.792,3.792,0,1,0,3.792,3.792,3.8,3.8,0,0,0-3.792-3.792" transform="translate(-881.799 -0.001)" fill="#1a1818"/><path d="M3.215,28.1V15.464H0V11.808H10.569v3.655H7.377V28.1Z" transform="translate(0 -10.411)" fill="#1a1818"/><path d="M113.968,28.1l-2.444-10.547h-.044L109.036,28.1h-3.765l-4.205-16.294h4.228l2.18,10.591h.044l2.4-10.591h3.193l2.356,10.635h.044l2.224-10.635h4.206L117.623,28.1Z" transform="translate(-89.103 -10.411)" fill="#1a1818"/><path d="M285.162,18.036a8.606,8.606,0,1,1,8.785,8.081c-4.536,0-8.785-3.259-8.785-8.081m13.035-.352a4.607,4.607,0,0,0-4.448-4.822,4.532,4.532,0,0,0-4.426,4.756,4.451,4.451,0,1,0,8.874.066" transform="translate(-251.409 -8.117)" fill="#1a1818"/><path d="M452.8,14.271c-.176-1.167-.66-1.585-1.475-1.585a1.359,1.359,0,0,0-1.431,1.277c0,.969.881,1.409,2.665,2.18,3.589,1.541,4.491,2.84,4.491,4.976,0,3.149-2.157,5-5.68,5-3.545,0-5.879-1.849-5.879-5.351v-.352h4.14c.022,1.343.682,2.224,1.717,2.224a1.555,1.555,0,0,0,1.563-1.563c0-1.3-1.805-1.872-3.281-2.466-2.665-1.079-3.875-2.488-3.875-4.6,0-2.774,2.686-4.8,5.681-4.8a6.2,6.2,0,0,1,2.884.682,4.459,4.459,0,0,1,2.6,4.382Z" transform="translate(-392.761 -8.117)" fill="#1a1818"/><path d="M558.386,18.036a8.606,8.606,0,1,1,8.785,8.081c-4.536,0-8.785-3.259-8.785-8.081m13.035-.352a4.607,4.607,0,0,0-4.448-4.822,4.532,4.532,0,0,0-4.426,4.756,4.451,4.451,0,1,0,8.874.066" transform="translate(-492.294 -8.117)" fill="#1a1818"/><path d="M740.1,28.1l.132-12.2-.044-.044L736.707,28.1h-2.753L730.432,15.75l.132,12.353h-3.831V11.808h5.351l3.237,10.723h.044l3.193-10.723h5.373V28.1Z" transform="translate(-640.714 -10.411)" fill="#1a1818"/><path d="M901.926,28.1V11.808h9.05v3.655h-5.064V18h4.91v3.655h-4.91v2.8h5.064V28.1Z" transform="translate(-795.171 -10.411)" fill="#1a1818"/></g></svg>